<?xml version="1.0" standalone="no"?>
<!DOCTYPE svg PUBLIC "-//W3C//DTD SVG 20010904//EN"
 "http://www.w3.org/TR/2001/REC-SVG-20010904/DTD/svg10.dtd">
<svg version="1.0" xmlns="http://www.w3.org/2000/svg"
 width="512.000000pt" height="512.000000pt" viewBox="0 0 512.000000 512.000000"
 preserveAspectRatio="xMidYMid meet">

<g transform="translate(0.000000,512.000000) scale(0.100000,-0.100000)"
fill="#000000" stroke="none">
<path d="M2370 5114 c-19 -2 -78 -9 -130 -15 -547 -62 -1087 -327 -1490 -731
-405 -406 -648 -901 -732 -1493 -17 -118 -17 -512 0 -630 84 -592 328 -1089
733 -1494 601 -601 1443 -861 2285 -706 500 93 964 338 1332 705 1002 1000
1002 2620 0 3620 -397 396 -879 637 -1448 725 -100 15 -472 28 -550 19z m514
-419 c856 -133 1557 -766 1766 -1592 51 -200 64 -316 64 -543 0 -296 -40 -525
-138 -773 -286 -733 -915 -1238 -1697 -1364 -147 -23 -485 -24 -634 0 -948
149 -1676 874 -1820 1813 -127 825 244 1661 943 2124 301 200 626 313 1017
354 81 8 403 -3 499 -19z"/>
<path d="M2465 3744 c-58 -20 -106 -64 -140 -125 -26 -47 -30 -64 -30 -129 0
-57 6 -85 22 -115 87 -163 289 -202 420 -82 67 62 87 107 88 197 0 65 -4 82
-29 128 -66 119 -204 171 -331 126z"/>
<path d="M2535 2975 c-5 -2 -22 -6 -38 -9 -15 -4 -45 -22 -67 -42 -74 -67 -71
-36 -68 -811 l3 -691 30 -43 c88 -125 271 -115 342 20 l23 44 0 684 c0 595 -2
688 -16 721 -17 42 -58 88 -94 107 -27 13 -98 26 -115 20z"/>
</g>
</svg>
