<?xml version="1.0" standalone="no"?>
<!DOCTYPE svg PUBLIC "-//W3C//DTD SVG 20010904//EN"
 "http://www.w3.org/TR/2001/REC-SVG-20010904/DTD/svg10.dtd">
<svg version="1.0" xmlns="http://www.w3.org/2000/svg"
 width="512.000000pt" height="512.000000pt" viewBox="0 0 512.000000 512.000000"
 preserveAspectRatio="xMidYMid meet">

<g transform="translate(0.000000,512.000000) scale(0.100000,-0.100000)"
fill="#000000" stroke="none">
<path d="M2469 5106 c-25 -6 -65 -24 -90 -38 -25 -15 -459 -442 -1000 -985
-774 -775 -961 -968 -980 -1008 -34 -73 -39 -200 -9 -278 34 -89 90 -153 169
-191 60 -28 75 -31 161 -31 165 0 144 -16 729 562 278 274 536 534 575 579 40
45 91 118 116 167 l45 86 5 -1837 5 -1837 23 -57 c33 -81 108 -160 190 -200
60 -30 75 -33 152 -33 70 1 95 5 142 27 76 35 143 99 181 173 l32 60 5 1855 5
1855 50 -95 49 -95 576 -576 c664 -665 624 -634 795 -634 89 0 106 3 156 28
67 32 142 109 172 175 18 38 22 66 22 147 0 175 80 81 -989 1153 -518 519
-964 958 -992 977 -88 59 -197 78 -295 51z"/>
</g>
</svg>
