<?xml version="1.0" standalone="no"?>
<!DOCTYPE svg PUBLIC "-//W3C//DTD SVG 20010904//EN"
 "http://www.w3.org/TR/2001/REC-SVG-20010904/DTD/svg10.dtd">
<svg version="1.0" xmlns="http://www.w3.org/2000/svg"
 width="512.000000pt" height="512.000000pt" viewBox="0 0 512.000000 512.000000"
 preserveAspectRatio="xMidYMid meet">

<g transform="translate(0.000000,512.000000) scale(0.100000,-0.100000)"
fill="#000000" stroke="none">
<path d="M1855 4986 c-104 -33 -185 -112 -213 -207 l-17 -59 -235 0 c-263 0
-350 -9 -427 -45 -109 -50 -207 -174 -233 -295 -8 -41 -10 -551 -8 -1995 l3
-1940 21 -52 c47 -114 148 -212 257 -250 49 -17 134 -18 1562 -18 l1510 0 55
23 c113 46 196 129 242 242 l23 55 0 1975 0 1975 -32 68 c-65 136 -185 226
-328 247 -38 5 -176 10 -305 10 l-235 0 -17 59 c-23 76 -95 158 -170 192 l-53
24 -680 2 c-529 2 -689 -1 -720 -11z m1373 -246 c21 -20 22 -30 22 -165 0
-132 -2 -147 -20 -165 -20 -20 -33 -20 -670 -20 -637 0 -650 0 -670 20 -18 18
-20 33 -20 165 0 135 1 145 22 165 21 20 31 20 668 20 637 0 647 0 668 -20z
m-1596 -323 c14 -112 90 -207 198 -248 48 -18 83 -19 730 -19 647 0 682 1 730
19 108 41 184 136 198 248 l7 58 255 0 c140 0 267 -3 282 -8 38 -10 98 -65
114 -104 11 -25 14 -123 14 -458 l0 -425 -266 0 c-296 0 -320 -4 -351 -64 -9
-17 -49 -130 -89 -251 -39 -121 -74 -213 -78 -205 -3 8 -64 175 -137 370 -72
196 -140 365 -152 378 -33 35 -86 47 -129 29 -20 -9 -43 -26 -52 -39 -8 -12
-65 -160 -127 -328 -61 -168 -114 -311 -118 -318 -4 -7 -31 65 -61 158 -65
208 -83 230 -180 221 -49 -5 -73 -38 -206 -296 -76 -149 -135 -253 -138 -245
-3 8 -53 231 -112 495 -58 264 -113 492 -120 507 -31 60 -129 75 -179 28 -12
-11 -94 -171 -181 -355 l-159 -334 -182 -1 -183 0 0 550 c0 440 3 557 14 583
16 40 77 95 114 103 15 3 32 7 37 9 6 2 120 3 255 2 l245 -2 7 -58z m177
-1440 c57 -259 110 -487 117 -504 15 -38 67 -73 109 -73 60 0 88 30 155 162
116 228 222 429 226 426 1 -2 28 -84 59 -183 32 -99 63 -192 71 -207 17 -32
62 -58 101 -58 33 0 87 31 101 57 6 10 63 162 127 338 64 176 120 323 124 327
4 5 69 -161 146 -367 86 -233 146 -382 160 -395 52 -49 138 -44 176 10 10 14
70 184 134 378 l116 352 215 0 214 0 0 -1365 c0 -1206 -2 -1370 -15 -1402 -21
-50 -42 -72 -90 -94 -38 -18 -104 -19 -1495 -19 -1391 0 -1457 1 -1495 19 -48
22 -69 44 -90 94 -13 32 -15 183 -15 1276 l0 1240 245 3 245 3 28 30 c16 17
71 119 122 228 52 108 96 197 99 197 3 0 53 -213 110 -473z"/>
<path d="M1398 1973 c-73 -46 -69 -163 9 -204 39 -21 2267 -21 2306 0 79 42
82 167 5 207 -23 12 -202 14 -1160 14 -1039 -1 -1135 -2 -1160 -17z"/>
<path d="M1402 1470 c-45 -28 -68 -82 -53 -130 6 -20 22 -47 37 -61 l26 -24
1148 0 1148 0 26 24 c15 14 31 41 37 61 15 48 -8 102 -53 130 -33 20 -47 20
-1158 20 -1111 0 -1125 0 -1158 -20z"/>
<path d="M1395 958 c-36 -28 -56 -78 -49 -118 9 -40 54 -86 95 -94 17 -3 355
-6 751 -6 780 0 762 -1 806 55 15 19 22 42 22 72 0 38 -5 50 -34 79 l-34 34
-765 0 -764 0 -28 -22z"/>
<path d="M3198 962 c-63 -39 -73 -129 -19 -183 37 -37 76 -41 316 -37 189 3
202 4 232 26 64 45 65 134 2 187 l-31 25 -236 0 c-205 0 -241 -3 -264 -18z"/>
</g>
</svg>
