<?xml version="1.0" standalone="no"?>
<!DOCTYPE svg PUBLIC "-//W3C//DTD SVG 20010904//EN"
 "http://www.w3.org/TR/2001/REC-SVG-20010904/DTD/svg10.dtd">
<svg version="1.0" xmlns="http://www.w3.org/2000/svg"
 width="512.000000pt" height="512.000000pt" viewBox="0 0 512.000000 512.000000"
 preserveAspectRatio="xMidYMid meet">

<g transform="translate(0.000000,512.000000) scale(0.100000,-0.100000)"
fill="#000000" stroke="none">
<path d="M445 5038 c-72 -13 -204 -80 -262 -133 -63 -56 -119 -139 -153 -225
l-25 -65 -3 -2023 c-3 -2244 -7 -2087 64 -2223 69 -131 209 -239 355 -274 56
-13 286 -15 1779 -15 1421 0 1724 3 1766 14 157 42 272 164 305 323 11 54 7
110 -45 614 -31 305 -59 573 -62 596 -5 36 -3 42 16 48 38 12 92 68 116 120
21 43 24 66 24 163 0 83 3 112 13 112 28 0 219 103 293 158 93 69 224 203 281
287 215 317 269 718 147 1090 -79 242 -253 475 -466 625 -171 121 -403 207
-603 223 l-30 2 -5 277 c-4 249 -7 279 -23 295 -17 17 -101 18 -1725 19 -1035
1 -1727 -2 -1757 -8z m495 -1997 l0 -1859 -242 -5 c-194 -3 -254 -8 -298 -22
-75 -24 -147 -61 -197 -102 l-43 -34 0 1763 c0 1942 -4 1829 61 1930 58 90
145 151 249 174 33 7 139 13 263 13 l207 1 0 -1859z m2848 1632 l-3 -218 -61
-7 c-257 -28 -520 -152 -720 -340 l-51 -48 -705 -2 c-678 -3 -707 -4 -727 -22
-28 -26 -29 -88 -1 -116 20 -20 33 -20 665 -20 355 0 645 -2 645 -4 0 -2 -15
-30 -32 -63 -18 -32 -46 -86 -62 -120 l-30 -63 -576 0 c-569 0 -578 0 -604
-21 -33 -26 -37 -88 -6 -119 20 -20 33 -20 576 -20 l557 0 -7 -47 c-4 -27 -9
-73 -12 -103 -3 -30 -7 -65 -10 -77 l-4 -23 -394 0 c-383 0 -394 -1 -420 -21
-37 -29 -37 -89 0 -118 26 -20 37 -21 425 -21 220 0 399 -2 399 -4 0 -2 7 -41
16 -87 43 -228 139 -426 298 -612 91 -106 297 -256 420 -307 l56 -22 0 -117
c0 -91 4 -125 19 -156 21 -46 62 -89 106 -113 l31 -17 -27 -230 c-16 -126 -28
-233 -29 -237 0 -5 -542 -8 -1205 -8 l-1205 0 0 1860 0 1860 1340 0 1340 0 -2
-217z m313 -403 c204 -43 372 -135 525 -285 56 -55 120 -129 144 -164 63 -94
128 -237 157 -348 23 -86 26 -118 26 -258 1 -113 -4 -181 -16 -230 -98 -429
-413 -744 -842 -842 -49 -12 -117 -17 -230 -16 -141 0 -172 3 -260 27 -120 31
-294 115 -387 186 -527 400 -580 1169 -113 1635 262 263 631 372 996 295z
m-421 -2291 c116 -20 380 -11 473 17 15 5 17 -2 17 -60 0 -76 -13 -109 -47
-125 -15 -7 -108 -11 -257 -11 -221 0 -235 1 -260 21 -24 19 -26 26 -26 100 0
72 2 80 18 75 9 -3 46 -10 82 -17z m349 -466 c7 -71 32 -319 57 -553 25 -234
46 -448 46 -476 0 -144 -148 -270 -290 -249 -128 19 -223 125 -224 248 0 49
109 1118 118 1145 2 9 40 12 142 12 l139 0 12 -127z m-549 -660 l-15 -148
-1237 -5 -1237 -5 -23 -22 c-28 -28 -29 -84 -3 -112 18 -21 23 -21 1249 -23
1224 -3 1231 -3 1229 -23 -6 -49 19 -160 50 -218 17 -34 33 -65 35 -70 5 -11
-2952 -9 -3021 3 -242 39 -397 274 -328 496 38 123 119 207 244 251 l62 22
1505 1 1505 0 -15 -147z"/>
<path d="M1830 4453 c-52 -20 -69 -94 -30 -133 20 -20 33 -20 654 -20 l635 0
20 26 c28 35 26 67 -3 101 l-24 28 -619 2 c-340 1 -625 -1 -633 -4z"/>
<path d="M3740 4119 c-98 -15 -250 -71 -342 -125 -110 -65 -247 -202 -312
-312 -157 -264 -175 -585 -47 -858 50 -105 87 -159 174 -251 117 -123 270
-212 443 -259 106 -29 341 -26 449 4 315 90 568 341 655 652 32 114 38 298 12
420 -72 346 -336 623 -676 710 -93 24 -265 33 -356 19z m315 -174 c86 -22 230
-96 301 -154 165 -137 262 -332 271 -546 10 -227 -61 -408 -222 -570 -162
-161 -343 -232 -570 -222 -214 9 -409 106 -546 271 -59 72 -132 215 -156 306
-23 88 -23 272 1 359 82 302 324 521 631 572 68 11 217 3 290 -16z"/>
</g>
</svg>
