<?xml version="1.0" standalone="no"?>
<!DOCTYPE svg PUBLIC "-//W3C//DTD SVG 20010904//EN"
 "http://www.w3.org/TR/2001/REC-SVG-20010904/DTD/svg10.dtd">
<svg version="1.0" xmlns="http://www.w3.org/2000/svg"
 width="512.000000pt" height="512.000000pt" viewBox="0 0 512.000000 512.000000"
 preserveAspectRatio="xMidYMid meet">

<g transform="translate(0.000000,512.000000) scale(0.100000,-0.100000)"
fill="#000000" stroke="none">
<path d="M42 4726 l-37 -34 -3 -293 c-2 -212 0 -301 9 -322 7 -16 351 -372
765 -791 l753 -761 1 -1038 c0 -943 2 -1041 16 -1067 21 -35 64 -60 103 -60
46 0 929 446 956 483 20 28 20 43 23 859 l2 831 743 749 c408 412 750 763 760
781 15 28 17 64 17 324 l0 293 -34 38 -34 37 -2001 3 -2001 2 -38 -34z m3868
-331 l0 -125 -1832 2 -1833 3 -3 109 c-1 61 0 116 2 123 4 11 333 13 1836 13
l1830 0 0 -125z m-376 -597 c-665 -671 -1115 -1131 -1131 -1155 -17 -25 -18
-84 -23 -847 l-5 -819 -303 -148 -302 -148 0 962 c-1 751 -3 967 -13 985 -7
12 -314 329 -682 704 -369 374 -671 685 -673 690 -2 4 754 8 1680 8 l1683 0
-231 -232z"/>
<path d="M3918 3000 c-421 -67 -770 -381 -874 -786 -141 -553 184 -1115 741
-1280 110 -32 320 -44 443 -24 431 69 769 390 870 825 11 49 16 116 16 225 -1
133 -5 169 -27 252 -49 183 -134 335 -266 471 -201 208 -439 314 -721 322 -69
2 -151 0 -182 -5z m324 -256 c290 -66 506 -268 598 -559 35 -110 39 -295 10
-421 -38 -166 -136 -330 -255 -425 -228 -185 -556 -231 -825 -116 -241 104
-414 309 -477 565 -24 98 -21 284 5 384 80 297 315 519 613 577 76 15 254 12
331 -5z"/>
<path d="M3634 2456 c-50 -22 -74 -61 -74 -119 l0 -51 165 -166 165 -165 -151
-150 c-83 -83 -157 -162 -165 -177 -46 -88 14 -188 112 -188 35 0 49 11 209
170 l170 170 166 -165 c139 -140 170 -166 202 -172 111 -18 178 108 108 203
-16 21 -90 100 -165 174 l-136 135 161 161 c159 159 162 163 166 210 6 62 -25
113 -78 131 -67 22 -83 11 -256 -166 l-161 -166 -170 168 c-94 92 -176 167
-184 167 -7 0 -22 2 -33 5 -11 3 -34 -1 -51 -9z"/>
</g>
</svg>
